{"title":"Resident Evil [2002] &amp; BluRay Xtras 1080p","uid":11815526,"size":6154986539,"categoryP":"video","categoryS":"hd___movies","magnet":"?xt=urn:btih:da2e94a0619a31e7b654acbb6a1ca3cf42ba7305&amp;dn=Resident+Evil+%5B2002%5D+%26amp%3B+BluRay+Xtras+1080p&amp;tr=udp%3A%2F%2Ftracker.openbittorrent.com%3A80&amp;tr=udp%3A%2F%2Fopen.demonii.com%3A1337&amp;tr=udp%3A%2F%2Ftracker.coppersurfer.tk%3A6969&amp;tr=udp%3A%2F%2Fexodus.desync.com%3A6969","seeders":4,"leechers":5,"uploader":"AlienMethod","files":20,"time":1429073198,"description":"x264/mp4\n6-Channel AC3@640kbps (audio 1)\n2-Channel AAC@128kbps (audio 2)\nBluRay Xtras (Making of, etc.) Incl.\nEnglish Subs Incl.\n\n\n&quot;A special military unit fights a powerful, out-of-control supercomputer and hundreds \nof scientists who have mutated into flesh-eating creatures after a laboratory accident.&quot;\n\n\n\nGeneral\nComplete name : F:TorrentsResident Evil [2002] &amp; BluRay Xtras 1080p\nResident Evil [2002] 1080p.mp4\nFormat : MPEG-4\nFormat profile : Base Media\nCodec ID : isom\nFile size : 3.96 GiB\nDuration : 1h 40mn\nOverall bit rate mode : Variable\nOverall bit rate : 5 642 Kbps\nEncoded date : UTC 2015-04-13 02:54:43\nTagged date : UTC 2015-04-13 02:54:43\nWriting application : My MP4Box GUI 0.6.0.6 \n\nVideo\nID : 1\nFormat : AVC\nFormat/Info : Advanced Video Codec\nFormat profile : &lt;a class=&quot;__cf_email__&quot; href=&quot;/cdn-cgi/l/email-protection&quot; data-cfemail=&quot;a5edccc2cde5e9918b95&quot;&gt;[email&amp;#160;protected]&lt;/a&gt;&lt;script cf-hash='f9e31' type=&quot;text/javascript&quot;&gt;\n/* &lt;![CDATA[ */!function(){try{var t=&quot;currentScript&quot;in document?document.currentScript:function(){for(var t=document.getElementsByTagName(&quot;script&quot;),e=t.length;e--;)if(t[e].getAttribute(&quot;cf-hash&quot;))return t[e]}();if(t&amp;&amp;t.previousSibling){var e,r,n,i,c=t.previousSibling,a=c.getAttribute(&quot;data-cfemail&quot;);if(a){for(e=&quot;&quot;,r=parseInt(a.substr(0,2),16),n=2;a.length-n;n+=2)i=parseInt(a.substr(n,2),16)^r,e+=String.fromCharCode(i);e=document.createTextNode(e),c.parentNode.replaceChild(e,c)}}}catch(u){}}();/* ]]&gt; */&lt;/script&gt;\nFormat settings, CABAC : Yes\nFormat settings, ReFrames : 4 frames\nCodec ID : avc1\nCodec ID/Info : Advanced Video Coding\nDuration : 1h 40mn\nBit rate : 4 868 Kbps\nMaximum bit rate : 18.0 Mbps\nWidth : 1 904 pixels\nHeight : 1 040 pixels\nDisplay aspect ratio : 1.85:1\nFrame rate mode : Constant\nFrame rate : 23.976 fps\nColor space : YUV\nChroma subsampling : 4:2:0\nBit depth : 8 bits\nScan type : Progressive\nBits/(Pixel*Frame) : 0.103\nStream size : 3.42 GiB (86%)\nTitle : Resident Evil [2002] (Encode).h264\nWriting library : x264 core 142 r2479 dd79a61\nEncoded date : UTC 2015-04-13 02:54:43\nTagged date : UTC 2015-04-13 02:55:11\n\nAudio #1\nID : 2\nFormat : AC-3\nFormat/Info : Audio Coding 3\nMode extension : CM (complete main)\nFormat settings, Endianness : Big\nCodec ID : ac-3\nDuration : 1h 40mn\nBit rate mode : Constant\nBit rate : 640 Kbps\nChannel(s) : 6 channels\nChannel positions : Front: L C R, Side: L R, LFE\nSampling rate : 48.0 KHz\nBit depth : 16 bits\nCompression mode : Lossy\nStream size : 460 MiB (11%)\nTitle : Resident Evil AC3.ac3\nEncoded date : UTC 2015-04-13 02:55:02\nTagged date : UTC 2015-04-13 02:55:11\n\nAudio #2\nID : 3\nFormat : AAC\nFormat/Info : Advanced Audio Codec\nFormat profile : LC\nCodec ID : 40\nDuration : 1h 40mn\nBit rate mode : Variable\nBit rate : 132 Kbps\nMaximum bit rate : 159 Kbps\nChannel(s) : 2 channels\nChannel positions : Front: L R\nSampling rate : 48.0 KHz\nCompression mode : Lossy\nStream size : 94.6 MiB (2%)\nTitle : Resident Evil [2002] AAC.m4a\nEncoded date : UTC 2015-04-13 02:55:10\nTagged date : UTC 2015-04-13 02:55:11","torrent":{"xt":"urn:btih:da2e94a0619a31e7b654acbb6a1ca3cf42ba7305","amp;dn":"Resident+Evil+%5B2002%5D+%26amp%3B+BluRay+Xtras+1080p","amp;tr":["udp%3A%2F%2Ftracker.openbittorrent.com%3A80","udp%3A%2F%2Fopen.demonii.com%3A1337","udp%3A%2F%2Ftracker.coppersurfer.tk%3A6969","udp%3A%2F%2Fexodus.desync.com%3A6969"],"infoHash":"da2e94a0619a31e7b654acbb6a1ca3cf42ba7305","infoHashBuffer":{"type":"Buffer","data":[218,46,148,160,97,154,49,231,182,84,172,187,106,28,163,207,66,186,115,5]},"announce":[],"urlList":[]}}